<svg id="visual" viewBox="0 0 960 250" width="960" height="250" xmlns="http://www.w3.org/2000/svg" xmlns:xlink="http://www.w3.org/1999/xlink" version="1.1"><rect x="0" y="0" width="960" height="250" fill="#1f1f1f"></rect><path d="M0 157L22.8 155C45.7 153 91.3 149 137 152.5C182.7 156 228.3 167 274 166.5C319.7 166 365.3 154 411.2 146.2C457 138.3 503 134.7 548.8 143C594.7 151.3 640.3 171.7 686 175.5C731.7 179.3 777.3 166.7 823 155.7C868.7 144.7 914.3 135.3 937.2 130.7L960 126L960 0L937.2 0C914.3 0 868.7 0 823 0C777.3 0 731.7 0 686 0C640.3 0 594.7 0 548.8 0C503 0 457 0 411.2 0C365.3 0 319.7 0 274 0C228.3 0 182.7 0 137 0C91.3 0 45.7 0 22.8 0L0 0Z" fill="#656565"></path><path d="M0 114L22.8 113.7C45.7 113.3 91.3 112.7 137 113.5C182.7 114.3 228.3 116.7 274 119.8C319.7 123 365.3 127 411.2 123.7C457 120.3 503 109.7 548.8 108.2C594.7 106.7 640.3 114.3 686 118C731.7 121.7 777.3 121.3 823 123.2C868.7 125 914.3 129 937.2 131L960 133L960 0L937.2 0C914.3 0 868.7 0 823 0C777.3 0 731.7 0 686 0C640.3 0 594.7 0 548.8 0C503 0 457 0 411.2 0C365.3 0 319.7 0 274 0C228.3 0 182.7 0 137 0C91.3 0 45.7 0 22.8 0L0 0Z" fill="#525252"></path><path d="M0 92L22.8 90.3C45.7 88.7 91.3 85.3 137 88.2C182.7 91 228.3 100 274 102.2C319.7 104.3 365.3 99.7 411.2 97.3C457 95 503 95 548.8 98.8C594.7 102.7 640.3 110.3 686 107C731.7 103.7 777.3 89.3 823 89.3C868.7 89.3 914.3 103.7 937.2 110.8L960 118L960 0L937.2 0C914.3 0 868.7 0 823 0C777.3 0 731.7 0 686 0C640.3 0 594.7 0 548.8 0C503 0 457 0 411.2 0C365.3 0 319.7 0 274 0C228.3 0 182.7 0 137 0C91.3 0 45.7 0 22.8 0L0 0Z" fill="#404040"></path><path d="M0 94L22.8 88.5C45.7 83 91.3 72 137 66.8C182.7 61.7 228.3 62.3 274 68.2C319.7 74 365.3 85 411.2 86.5C457 88 503 80 548.8 73.3C594.7 66.7 640.3 61.3 686 60.5C731.7 59.7 777.3 63.3 823 65.2C868.7 67 914.3 67 937.2 67L960 67L960 0L937.2 0C914.3 0 868.7 0 823 0C777.3 0 731.7 0 686 0C640.3 0 594.7 0 548.8 0C503 0 457 0 411.2 0C365.3 0 319.7 0 274 0C228.3 0 182.7 0 137 0C91.3 0 45.7 0 22.8 0L0 0Z" fill="#2f2f2f"></path><path d="M0 23L22.8 28.8C45.7 34.7 91.3 46.3 137 48.8C182.7 51.3 228.3 44.7 274 45.2C319.7 45.7 365.3 53.3 411.2 55.5C457 57.7 503 54.3 548.8 47.8C594.7 41.3 640.3 31.7 686 33.2C731.7 34.7 777.3 47.3 823 47.7C868.7 48 914.3 36 937.2 30L960 24L960 0L937.2 0C914.3 0 868.7 0 823 0C777.3 0 731.7 0 686 0C640.3 0 594.7 0 548.8 0C503 0 457 0 411.2 0C365.3 0 319.7 0 274 0C228.3 0 182.7 0 137 0C91.3 0 45.7 0 22.8 0L0 0Z" fill="#1f1f1f"></path></svg>