<svg id="visual" viewBox="0 0 960 250" width="960" height="250" xmlns="http://www.w3.org/2000/svg" xmlns:xlink="http://www.w3.org/1999/xlink" version="1.1"><rect x="0" y="0" width="960" height="250" fill="#1f1f1f"></rect><path d="M0 207L22.8 196.3C45.7 185.7 91.3 164.3 137 160.7C182.7 157 228.3 171 274 178.7C319.7 186.3 365.3 187.7 411.2 183C457 178.3 503 167.7 548.8 170.3C594.7 173 640.3 189 686 188.3C731.7 187.7 777.3 170.3 823 163.2C868.7 156 914.3 159 937.2 160.5L960 162L960 0L937.2 0C914.3 0 868.7 0 823 0C777.3 0 731.7 0 686 0C640.3 0 594.7 0 548.8 0C503 0 457 0 411.2 0C365.3 0 319.7 0 274 0C228.3 0 182.7 0 137 0C91.3 0 45.7 0 22.8 0L0 0Z" fill="#656565"></path><path d="M0 145L22.8 140.3C45.7 135.7 91.3 126.3 137 128.7C182.7 131 228.3 145 274 149.2C319.7 153.3 365.3 147.7 411.2 140.7C457 133.7 503 125.3 548.8 121.5C594.7 117.7 640.3 118.3 686 118.7C731.7 119 777.3 119 823 118.8C868.7 118.7 914.3 118.3 937.2 118.2L960 118L960 0L937.2 0C914.3 0 868.7 0 823 0C777.3 0 731.7 0 686 0C640.3 0 594.7 0 548.8 0C503 0 457 0 411.2 0C365.3 0 319.7 0 274 0C228.3 0 182.7 0 137 0C91.3 0 45.7 0 22.8 0L0 0Z" fill="#525252"></path><path d="M0 98L22.8 99.2C45.7 100.3 91.3 102.7 137 103.3C182.7 104 228.3 103 274 98.2C319.7 93.3 365.3 84.7 411.2 80.2C457 75.7 503 75.3 548.8 76.3C594.7 77.3 640.3 79.7 686 85.2C731.7 90.7 777.3 99.3 823 104.8C868.7 110.3 914.3 112.7 937.2 113.8L960 115L960 0L937.2 0C914.3 0 868.7 0 823 0C777.3 0 731.7 0 686 0C640.3 0 594.7 0 548.8 0C503 0 457 0 411.2 0C365.3 0 319.7 0 274 0C228.3 0 182.7 0 137 0C91.3 0 45.7 0 22.8 0L0 0Z" fill="#404040"></path><path d="M0 50L22.8 50.8C45.7 51.7 91.3 53.3 137 53.5C182.7 53.7 228.3 52.3 274 58.3C319.7 64.3 365.3 77.7 411.2 84.3C457 91 503 91 548.8 90.3C594.7 89.7 640.3 88.3 686 80.8C731.7 73.3 777.3 59.7 823 56.5C868.7 53.3 914.3 60.7 937.2 64.3L960 68L960 0L937.2 0C914.3 0 868.7 0 823 0C777.3 0 731.7 0 686 0C640.3 0 594.7 0 548.8 0C503 0 457 0 411.2 0C365.3 0 319.7 0 274 0C228.3 0 182.7 0 137 0C91.3 0 45.7 0 22.8 0L0 0Z" fill="#2f2f2f"></path><path d="M0 24L22.8 28.5C45.7 33 91.3 42 137 41.5C182.7 41 228.3 31 274 28.5C319.7 26 365.3 31 411.2 34.7C457 38.3 503 40.7 548.8 41C594.7 41.3 640.3 39.7 686 37.8C731.7 36 777.3 34 823 34.2C868.7 34.3 914.3 36.7 937.2 37.8L960 39L960 0L937.2 0C914.3 0 868.7 0 823 0C777.3 0 731.7 0 686 0C640.3 0 594.7 0 548.8 0C503 0 457 0 411.2 0C365.3 0 319.7 0 274 0C228.3 0 182.7 0 137 0C91.3 0 45.7 0 22.8 0L0 0Z" fill="#1f1f1f"></path></svg>